<svg xmlns="http://www.w3.org/2000/svg" viewBox="0 0 128 128" role="img" aria-labelledby="title desc">
  <title id="title">Brian logo</title>
  <desc id="desc">A broken brain mark with a split down the center.</desc>
  <defs>
    <linearGradient id="bg" x1="0%" y1="0%" x2="100%" y2="100%">
      <stop offset="0%" stop-color="#f6efe3" />
      <stop offset="100%" stop-color="#efe5d3" />
    </linearGradient>
    <linearGradient id="stroke" x1="0%" y1="0%" x2="100%" y2="100%">
      <stop offset="0%" stop-color="#2f4134" />
      <stop offset="100%" stop-color="#6b8f73" />
    </linearGradient>
  </defs>
  <rect width="128" height="128" rx="28" fill="url(#bg)" />
  <g fill="none" stroke="url(#stroke)" stroke-linecap="round" stroke-linejoin="round" stroke-width="6">
    <path d="M50 25c-14 0-25 11-25 25 0 5 2 10 5 14-3 3-5 8-5 13 0 11 9 20 20 20h10V25h-5z" />
    <path d="M78 25c14 0 25 11 25 25 0 5-2 10-5 14 3 3 5 8 5 13 0 11-9 20-20 20H73V25h5z" />
    <path d="M50 45c-6 0-11 5-11 11" />
    <path d="M44 72c-5 0-9 4-9 9" />
    <path d="M78 44c6 0 11 5 11 11" />
    <path d="M84 72c5 0 9 4 9 9" />
    <path d="M64 24v16" />
    <path d="M64 46l-8 12 10 10-9 14 11 20" stroke="#d95b5b" />
    <path d="M55 56l6 6" />
    <path d="M69 70l6 6" />
  </g>
</svg>
